External Loads File
version=1
nRows=62
nColumns=13
Range=5.000000e-03-10 seconds
endheader
time 	forceRightX 	forceRightY 	forceRightZ 	pointRightX 	pointRightY 	pointRightZ 	forceLeftX 	forceLeftY 	forceLeftZ 	pointLeftX 	pointLeftY 	pointLeftZ 		
5.005000 22.893640 324.123507 -0.000000 0.410943 0.421913 -0.166620 83.727984 -8.671992 -0.000000 0.159975 0.179670 -0.411022
5.010000 24.552773 377.586856 -0.000000 0.415005 0.414578 -0.166326 54.900666 -61.678095 -0.000000 0.155072 0.188298 -0.410309
5.015000 23.833695 430.037879 -0.000000 0.419025 0.406015 -0.166154 28.284440 -107.275308 -0.000000 0.150631 0.197299 -0.410136
5.020000 19.808240 479.023498 -0.000000 0.422789 0.396905 -0.166096 3.984523 -144.518460 -0.000000 0.146871 0.206423 -0.410023
5.025000 12.518756 522.521977 -0.000000 0.426333 0.387380 -0.166218 -17.872425 -172.783982 -0.000000 0.143849 0.215546 -0.409988
5.030000 2.334554 559.228119 -0.000000 0.429437 0.377429 -0.166198 -36.933097 -191.829021 -0.000000 0.141445 0.224542 -0.409942
5.035000 -9.116431 588.612943 -0.000000 0.432172 0.367157 -0.166238 -52.897501 -201.898140 -0.000000 0.139508 0.233886 -0.409912
5.040000 -21.589136 610.908302 -0.000000 0.434295 0.356682 -0.165984 -64.805185 -203.961547 -0.000000 0.137865 0.243319 -0.409743
5.045000 -33.007970 627.014442 -0.000000 0.436089 0.345937 -0.165914 -72.422455 -199.342482 -0.000000 0.136658 0.253370 -0.409600
5.050000 -43.198327 638.189604 -0.000000 0.437411 0.334896 -0.166365 -75.239916 -189.840207 -0.000000 0.135889 0.263715 -0.409417
5.055000 -52.066721 645.845741 -0.000000 0.438305 0.323831 -0.166521 -73.285694 -177.258040 -0.000000 0.135522 0.274349 -0.409254
5.060000 -59.640210 651.390756 -0.000000 0.438521 0.312680 -0.166392 -67.081593 -163.101435 -0.000000 0.135654 0.284994 -0.409048
5.065000 -65.110826 656.180318 -0.000000 0.437913 0.301399 -0.166364 -57.649220 -148.351801 -0.000000 0.136317 0.295712 -0.408818
5.070000 -68.662037 661.257172 -0.000000 0.437211 0.290279 -0.167438 -45.815707 -133.701945 -0.000000 0.137543 0.306468 -0.408752
5.075000 -68.886324 667.556315 -0.000000 0.435566 0.278784 -0.167702 -32.680245 -119.451600 -0.000000 0.139441 0.317105 -0.408797
5.080000 -67.711624 675.402295 -0.000000 0.433281 0.267827 -0.167800 -18.589238 -105.915874 -0.000000 0.141922 0.327457 -0.408866
5.085000 -63.264076 685.295164 -0.000000 0.430316 0.257033 -0.168212 -4.410271 -93.127232 -0.000000 0.145045 0.337798 -0.409186
5.090000 -55.196416 697.376767 -0.000000 0.426694 0.246546 -0.168416 9.456975 -81.226855 -0.000000 0.148687 0.348352 -0.409336
5.095000 -45.182706 711.452254 -0.000000 0.422390 0.236220 -0.168471 22.888159 -70.323276 -0.000000 0.153033 0.358093 -0.409524
5.100000 -31.622874 727.443094 -0.000000 0.417432 0.226250 -0.168445 35.404868 -60.611886 -0.000000 0.157896 0.368004 -0.409711
5.105000 -16.178043 744.973728 -0.000000 0.411872 0.216630 -0.168388 46.878132 -52.258226 -0.000000 0.163262 0.377419 -0.409917
5.110000 1.975766 763.708447 -0.000000 0.405637 0.207386 -0.168265 56.887565 -45.570632 -0.000000 0.169193 0.386696 -0.409988
5.115000 22.302490 783.160395 -0.000000 0.398835 0.198498 -0.168226 64.994889 -40.767164 -0.000000 0.175687 0.395655 -0.409896
5.120000 45.462880 802.721498 -0.000000 0.391443 0.190003 -0.168074 70.642200 -38.065130 -0.000000 0.182813 0.404572 -0.409725
5.125000 69.453105 821.796166 -0.000000 0.383547 0.181937 -0.167728 73.479322 -37.273789 -0.000000 0.190357 0.412722 -0.409524
5.130000 94.715158 839.564087 -0.000000 0.375215 0.174350 -0.167539 73.214494 -38.177385 -0.000000 0.198359 0.420472 -0.409389
5.135000 120.933942 855.091626 -0.000000 0.366527 0.167315 -0.167319 69.854357 -40.306593 -0.000000 0.206937 0.427717 -0.409099
5.140000 147.691000 867.363297 -0.000000 0.357421 0.160389 -0.166481 63.672997 -43.085293 -0.000000 0.215742 0.434311 -0.409091
5.145000 174.077050 875.436171 -0.000000 0.348231 0.154445 -0.166285 55.166010 -45.851358 -0.000000 0.225252 0.440398 -0.409688
5.150000 197.782529 878.790901 -0.000000 0.338691 0.149169 -0.166212 45.033308 -47.882374 -0.000000 0.234436 0.445634 -0.409055
5.155000 221.409081 875.955731 -0.000000 0.329100 0.144394 -0.166110 33.744724 -48.809895 -0.000000 0.244477 0.450255 -0.408805
5.160000 241.539386 866.906277 -0.000000 0.319434 0.140145 -0.165897 22.030883 -48.048408 -0.000000 0.254173 0.454313 -0.409114
5.165000 260.376786 850.371543 -0.000000 0.309631 0.136497 -0.165677 10.222639 -45.307229 -0.000000 0.264460 0.457921 -0.409057
5.170000 275.900309 826.452590 -0.000000 0.299785 0.133597 -0.165325 -1.160128 -40.273825 -0.000000 0.274822 0.460681 -0.408867
5.175000 287.469685 795.281774 -0.000000 0.289998 0.130897 -0.164853 -11.690876 -32.896462 -0.000000 0.285118 0.462871 -0.408544
5.180000 295.296961 757.130107 -0.000000 0.280247 0.129269 -0.164413 -21.004336 -23.347986 -0.000000 0.295453 0.464486 -0.408243
5.185000 299.036151 712.854585 -0.000000 0.270547 0.128574 -0.163872 -28.770831 -12.012934 -0.000000 0.305549 0.465466 -0.408083
5.190000 299.240051 663.171475 -0.000000 0.260840 0.128389 -0.163168 -34.787979 0.640717 -0.000000 0.315490 0.465913 -0.408057
5.195000 296.735354 608.647318 -0.000000 0.251073 0.129119 -0.162515 -38.929471 14.239325 -0.000000 0.325391 0.465545 -0.407955
5.200000 290.124574 550.844881 -0.000000 0.241600 0.130575 -0.162104 -41.175060 28.472147 -0.000000 0.334615 0.464544 -0.408463
5.205000 280.972828 489.773732 -0.000000 0.232052 0.132724 -0.161863 -41.456968 43.461038 -0.000000 0.343510 0.462671 -0.408934
5.210000 268.642345 426.433189 -0.000000 0.222813 0.135510 -0.161728 -39.787002 59.417684 -0.000000 0.352009 0.460206 -0.409470
5.215000 253.115522 361.516906 -0.000000 0.213912 0.139109 -0.161675 -36.217641 76.802702 -0.000000 0.359897 0.457236 -0.410051
5.220000 234.452980 295.813634 -0.000000 0.205491 0.143217 -0.161689 -30.966016 96.228297 -0.000000 0.367132 0.453767 -0.410548
5.225000 213.682071 229.508369 -0.000000 0.196857 0.147910 -0.162128 -24.166740 118.479934 -0.000000 0.373687 0.449532 -0.411089
5.230000 190.567194 163.968544 -0.000000 0.189187 0.153198 -0.162061 -16.654158 144.218318 -0.000000 0.379787 0.445018 -0.411908
5.235000 165.972190 99.830539 -0.000000 0.182003 0.158976 -0.161924 -9.164569 174.121389 -0.000000 0.384847 0.439838 -0.411959
5.240000 140.713842 37.518675 -0.000000 0.175147 0.165480 -0.161758 -2.097981 208.603562 -0.000000 0.389762 0.434333 -0.412657
5.245000 114.899457 -21.783946 -0.000000 0.168629 0.172847 -0.161629 3.706329 247.646246 -0.000000 0.394007 0.428208 -0.413047
5.250000 88.436512 -76.750662 -0.000000 0.162542 0.180873 -0.162014 7.888054 290.807841 -0.000000 0.398260 0.421403 -0.413787
5.255000 61.372986 -125.381366 -0.000000 0.157226 0.189326 -0.162185 9.506343 337.193525 -0.000000 0.401919 0.413749 -0.414114
5.260000 34.100909 -165.810701 -0.000000 0.152726 0.197979 -0.162031 8.246817 385.417323 -0.000000 0.405415 0.405613 -0.414283
5.265000 7.585446 -196.525278 -0.000000 0.148796 0.206267 -0.162399 3.852649 433.731511 -0.000000 0.408568 0.396862 -0.414403
5.270000 -17.049552 -216.848316 -0.000000 0.145491 0.214555 -0.162605 -3.071021 480.264399 -0.000000 0.411506 0.387664 -0.414434
5.275000 -38.530977 -227.028570 -0.000000 0.142538 0.223139 -0.162837 -11.683361 523.338807 -0.000000 0.413991 0.378112 -0.414466
5.280000 -55.826165 -228.123328 -0.000000 0.139664 0.232206 -0.163445 -20.752002 561.756282 -0.000000 0.416261 0.368267 -0.414452
5.285000 -67.806186 -221.823274 -0.000000 0.137564 0.241712 -0.163674 -30.155100 594.887473 -0.000000 0.418078 0.357974 -0.414511
5.290000 -74.453976 -209.840390 -0.000000 0.135675 0.251916 -0.163984 -38.272618 622.719030 -0.000000 0.419849 0.347372 -0.414394
5.295000 -75.208432 -194.130894 -0.000000 0.134331 0.262210 -0.164360 -46.599193 645.486182 -0.000000 0.421153 0.336655 -0.414430
5.300000 -70.868542 -176.076209 -0.000000 0.133420 0.272809 -0.164629 -54.194358 663.871472 -0.000000 0.421977 0.325810 -0.413954
5.305000 -62.124230 -156.886179 -0.000000 0.133107 0.283448 -0.164819 -61.443404 678.700104 -0.000000 0.422218 0.314924 -0.414310
5.310000 -50.117445 -137.425404 -0.000000 0.133225 0.294211 -0.165089 -67.668989 691.033363 -0.000000 0.422055 0.304000 -0.414450
